<?xml version="1.0" ?><svg data-name="Layer 1" id="Layer_1" viewBox="0 0 100 100" xmlns="http://www.w3.org/2000/svg"><title/><path d="M79.3,62.78l-8.65-8.65A28.21,28.21,0,0,0,30.8,14.28L25.34,8.82h0L22.15,5.63a1.41,1.41,0,0,0-2,2l2.22,2.22A37.3,37.3,0,0,0,48.59,72.49V83.74C36.07,84,23.28,87.4,23.28,93.56V95H76.72V93.56c0-6.16-12.79-9.59-25.31-9.83V72.47a37,37,0,0,0,23.7-9.92l2.21,2.21a1.41,1.41,0,0,0,2-2Zm-55-27.58a25.24,25.24,0,0,1,3.56-13c.41,3.9,2.4,8.67,5.69,13.54l-7.84,7.84A25.43,25.43,0,0,1,24.34,35.2Zm11-19.11c3.52,0,8.18,1.87,12.94,5L35.63,33.72a36.76,36.76,0,0,1-3.77-7.2c-1.6-4.26-1.63-7.73-.08-9.28A4.84,4.84,0,0,1,35.31,16.09ZM67.7,53.16h0a4.84,4.84,0,0,1-3.54,1.15c-3.52,0-8.18-1.87-12.94-5L63.84,36.69C68.7,44.08,70.12,50.74,67.7,53.16Zm-18.81-5.5a56.68,56.68,0,0,1-6.23-5.38,57.38,57.38,0,0,1-5.39-6.22L50.59,22.74A56.77,56.77,0,0,1,62.2,34.35ZM35.25,38.07a60.18,60.18,0,0,0,5.42,6.2,60.22,60.22,0,0,0,6.2,5.42L38.54,58A25.52,25.52,0,0,1,26.93,46.39ZM49.19,51.34c4.87,3.29,9.65,5.29,13.54,5.7a25.5,25.5,0,0,1-21.39,2.15Zm22.38-3.16c-.41-3.9-2.4-8.66-5.69-13.53l7.83-7.83A25.51,25.51,0,0,1,71.57,48.18Zm1-24.16-8.32,8.32A61.29,61.29,0,0,0,52.61,20.71l8.32-8.32A25.41,25.41,0,0,1,72.54,24ZM58.13,11.22l-7.84,7.84c-4.87-3.29-9.65-5.29-13.54-5.7a25.5,25.5,0,0,1,21.39-2.15ZM73.28,92.16H26.72C29,89.47,37.45,86.53,50,86.53S71,89.47,73.28,92.16ZM49.74,69.7A34.5,34.5,0,0,1,24.37,11.83l4.45,4.45A28.21,28.21,0,0,0,68.67,56.12l4.45,4.45A34.25,34.25,0,0,1,49.74,69.7Z"/></svg>